<?xml version="1.0" standalone="no"?><!DOCTYPE svg PUBLIC "-//W3C//DTD SVG 1.1//EN" "http://www.w3.org/Graphics/SVG/1.1/DTD/svg11.dtd"><svg class="icon" width="32px" height="32.00px" viewBox="0 0 1024 1024" version="1.1" xmlns="http://www.w3.org/2000/svg"><path d="M799.84 524.44c0 156.91-127.2 284.1-284.1 284.1-110.06 0-205.5-62.57-252.68-154.09-14.83-28.77 9.07-62.48 41.1-57.85 13.75 1.99 27.81 3.02 42.11 3.02 161.23 0 291.93-130.71 291.93-291.93v-0.42c-0.03-18.2 20.15-29.27 35.28-19.15 76.19 50.96 126.36 137.78 126.36 236.32z" fill="#ffffff" /><path d="M515.63 269.26c0.59 0 1.18-0.01 1.77-0.01 66.52 0 129.21 25.75 176.52 72.52 47.26 46.73 73.74 109.03 74.55 175.44 0.13 10.96 9.06 19.76 19.99 19.76h0.25c11.04-0.13 19.89-9.2 19.75-20.24-0.94-76.99-31.63-149.23-86.42-203.4-54.84-54.22-127.52-84.07-204.64-84.07-0.69 0-1.39 0-2.08 0.01-11.04 0.08-19.93 9.11-19.85 20.15 0.08 10.99 9.02 19.85 20 19.85 0.06-0.01 0.11-0.01 0.16-0.01zM294.53 245.86c4.21 0 8.46-1.32 12.07-4.06 2.65-2.01 5.37-4.01 8.09-5.95 8.99-6.42 11.08-18.91 4.66-27.9-6.42-8.99-18.91-11.08-27.9-4.66a417.16 417.16 0 0 0-9.01 6.63c-8.8 6.67-10.53 19.22-3.85 28.02 3.92 5.19 9.89 7.92 15.94 7.92z" fill="#ffffff" /><path d="M885.6 659.16c0.78-0.37 1.56-0.75 2.34-1.12 0.67-0.33 1.34-0.65 2.01-0.98 0.5-0.25 1-0.49 1.5-0.74 1.07-0.53 2.14-1.06 3.19-1.6 0.11-0.06 0.23-0.11 0.34-0.17 30.06-15.23 54.5-32.18 72.87-50.59 24.55-24.6 37.71-51.11 39.17-78.87 0.09-1.74 0.14-3.48 0.14-5.23 0-29.17-12.8-57.03-38.05-82.82-16.66-17.01-38.51-32.82-65.17-47.18-0.36-0.19-0.7-0.39-1.06-0.58a0.467 0.467 0 0 0-0.1-0.05c-7.3-3.9-14.96-7.68-22.97-11.36-1.2-3.04-2.43-6.06-3.71-9.08-19.61-46.36-47.68-87.99-83.42-123.74s-77.38-63.81-123.74-83.42c-48.01-20.31-98.99-30.6-151.54-30.6-59.11 0-115.9 12.92-168.77 38.39-9.95 4.79-14.13 16.75-9.34 26.7 4.79 9.95 16.75 14.13 26.7 9.34 47.42-22.84 98.36-34.43 151.41-34.43 93.3 0 181.02 36.33 246.99 102.31 65.97 65.97 102.31 153.69 102.31 246.99v0.49c-0.05 11.05 8.85 20.04 19.9 20.1h0.1c11 0 19.94-8.89 20-19.9v-0.69c0-30.17-3.4-59.83-10.14-88.71 17.77 10.53 32.49 21.7 43.96 33.41 17.67 18.05 26.63 36.5 26.63 54.83 0 1.1-0.04 2.19-0.1 3.29-0.01 0.11-0.01 0.22-0.02 0.33-0.06 0.99-0.16 1.99-0.28 2.98l-0.09 0.75c-0.11 0.89-0.25 1.77-0.41 2.66-0.07 0.38-0.14 0.77-0.22 1.15-0.15 0.75-0.31 1.5-0.49 2.25-0.13 0.54-0.27 1.09-0.42 1.63-0.09 0.36-0.2 0.71-0.3 1.07-0.28 0.97-0.57 1.94-0.9 2.91-0.06 0.16-0.11 0.33-0.17 0.49-1.52 4.4-3.54 8.8-6.06 13.17l-0.09 0.15c-0.64 1.1-1.31 2.2-2.01 3.3-0.27 0.42-0.55 0.85-0.83 1.27-0.42 0.64-0.86 1.28-1.3 1.93-0.5 0.72-1.01 1.45-1.54 2.17-0.16 0.22-0.32 0.45-0.49 0.67-0.81 1.09-1.65 2.17-2.53 3.26-0.02 0.02-0.04 0.05-0.06 0.07-2.8 3.46-5.91 6.91-9.34 10.35-7.36 7.38-16.01 14.54-25.89 21.45-0.04 0.03-0.08 0.06-0.12 0.08-1.56 1.09-3.16 2.18-4.79 3.26-0.22 0.15-0.45 0.29-0.68 0.44-1.37 0.9-2.76 1.8-4.17 2.69-0.45 0.29-0.91 0.58-1.37 0.86-1.26 0.79-2.54 1.57-3.84 2.36-0.56 0.34-1.13 0.68-1.69 1.01-1.3 0.77-2.62 1.54-3.95 2.31-0.5 0.29-1 0.58-1.51 0.86-1.5 0.85-3.02 1.7-4.56 2.54-0.31 0.17-0.62 0.35-0.94 0.52-1.79 0.97-3.62 1.94-5.46 2.9-0.16 0.08-0.32 0.17-0.48 0.25-8.18 4.24-16.89 8.36-26.11 12.35-0.03 0.01-0.06 0.03-0.09 0.05-3.98 1.72-8.06 3.42-12.23 5.09-86.73 34.72-202.48 53.84-325.91 53.84-123.44 0-239.18-19.12-325.91-53.84-79.76-31.93-125.51-73.8-125.51-114.87 0-18.35 8.97-36.82 26.67-54.88 12.29-12.54 28.31-24.46 47.82-35.64-7.01 29.28-10.65 59.53-10.71 90.22-0.02 11.05 8.92 20.02 19.96 20.04h0.04c11.03 0 19.98-8.93 20-19.96 0.17-88.12 33.25-172.21 93.14-236.79 7.51-8.1 7.04-20.75-1.06-28.26-8.1-7.51-20.75-7.04-28.26 1.06-32.94 35.51-58.58 76.33-76.15 120.35-39.73 17.82-71.14 38.32-93.34 60.98-25.28 25.8-38.1 53.69-38.1 82.88 0 54.19 44.93 104.04 127.18 141.93 0.19 0.85 0.42 1.71 0.74 2.55C179.56 738.15 228.1 801.31 292.6 847c65.96 46.72 143.69 71.42 224.79 71.42 81.25 0 159.11-24.78 225.14-71.67 64.58-45.85 113.1-109.21 140.33-183.23 0.43-1.16 0.72-2.33 0.93-3.51 0.24-0.11 0.48-0.23 0.72-0.34 0.37-0.17 0.73-0.34 1.09-0.51zM719.39 814.14c-59.23 42.05-129.07 64.28-201.98 64.28-72.77 0-142.5-22.15-201.67-64.06-48.35-34.25-86.69-79.43-112.31-131.96 87.32 29.88 196.83 46.18 312.31 46.18 117.26 0 228.36-16.8 316.33-47.57-25.56 53.01-64.04 98.6-112.68 133.13z" fill="#ffffff" /></svg>