<?xml version="1.0" standalone="no"?><!DOCTYPE svg PUBLIC "-//W3C//DTD SVG 1.1//EN" "http://www.w3.org/Graphics/SVG/1.1/DTD/svg11.dtd"><svg class="icon" width="32px" height="32.00px" viewBox="0 0 1024 1024" version="1.1" xmlns="http://www.w3.org/2000/svg"><path d="M533.333333 64a106.666667 106.666667 0 0 1 106.666667 106.666667v278.186666c94.186667 41.173333 160 135.146667 160 244.48C800 840.618667 680.618667 960 533.333333 960s-266.666667-119.381333-266.666666-266.666667c0-109.354667 65.813333-203.328 160-244.48V170.666667a106.666667 106.666667 0 0 1 106.666666-106.666667z m53.333334 256h-106.666667v177.749333c-86.058667 23.424-149.333333 102.101333-149.333333 195.584a202.666667 202.666667 0 0 0 405.333333 0c0-93.461333-63.274667-172.16-149.333333-195.562666V320zM384 341.333333v42.666667h-128a21.333333 21.333333 0 0 1 0-42.666667h128z m0-85.333333v42.666667h-85.333333a21.333333 21.333333 0 0 1 0-42.666667h85.333333z m0-85.333333v42.666666h-149.333333a21.333333 21.333333 0 0 1 0-42.666666h149.333333z" fill="#131415" /></svg>